<?xml version="1.0" encoding="UTF-8" standalone="no"?>
<!DOCTYPE svg PUBLIC "-//W3C//DTD SVG 1.1//EN"
 "http://www.w3.org/Graphics/SVG/1.1/DTD/svg11.dtd">
<!-- Generated by graphviz version 2.43.0 (0)
 -->
<!-- Title: CrcIButton&lt; T &gt; Pages: 1 -->
<svg width="118pt" height="204pt"
 viewBox="0.00 0.00 118.00 204.00" xmlns="http://www.w3.org/2000/svg" xmlns:xlink="http://www.w3.org/1999/xlink">
<g id="graph0" class="graph" transform="scale(1 1) rotate(0) translate(4 200)">
<title>CrcIButton&lt; T &gt;</title>
<polygon fill="white" stroke="transparent" points="-4,4 -4,-200 114,-200 114,4 -4,4"/>
<!-- Node1 -->
<g id="node1" class="node">
<title>Node1</title>
<g id="a_node1"><a xlink:title="iButton CRC template class">
<polygon fill="#bfbfbf" stroke="black" points="7,-0.5 7,-90.5 103,-90.5 103,-0.5 7,-0.5"/>
<text text-anchor="middle" x="55" y="-78.5" font-family="Helvetica,sans-Serif" font-size="10.00">CrcIButton&lt; T &gt;</text>
<polyline fill="none" stroke="black" points="7,-71.5 103,-71.5 "/>
<text text-anchor="middle" x="55" y="-59.5" font-family="Helvetica,sans-Serif" font-size="10.00"> </text>
<polyline fill="none" stroke="black" points="7,-52.5 103,-52.5 "/>
<text text-anchor="start" x="15" y="-40.5" font-family="Helvetica,sans-Serif" font-size="10.00">+ CrcIButton()</text>
<text text-anchor="start" x="15" y="-29.5" font-family="Helvetica,sans-Serif" font-size="10.00">+ reset()</text>
<text text-anchor="start" x="15" y="-18.5" font-family="Helvetica,sans-Serif" font-size="10.00">+ value()</text>
<text text-anchor="start" x="15" y="-7.5" font-family="Helvetica,sans-Serif" font-size="10.00">+ update()</text>
</a>
</g>
</g>
<!-- Node2 -->
<g id="node2" class="node">
<title>Node2</title>
<g id="a_node2"><a xlink:title=" ">
<polygon fill="white" stroke="#bfbfbf" points="0,-138.5 0,-195.5 110,-195.5 110,-138.5 0,-138.5"/>
<text text-anchor="middle" x="55" y="-183.5" font-family="Helvetica,sans-Serif" font-size="10.00">static const uint8_t</text>
<polyline fill="none" stroke="#bfbfbf" points="0,-176.5 110,-176.5 "/>
<text text-anchor="middle" x="55" y="-164.5" font-family="Helvetica,sans-Serif" font-size="10.00"> </text>
<polyline fill="none" stroke="#bfbfbf" points="0,-157.5 110,-157.5 "/>
<text text-anchor="middle" x="55" y="-145.5" font-family="Helvetica,sans-Serif" font-size="10.00"> </text>
</a>
</g>
</g>
<!-- Node2&#45;&gt;Node1 -->
<g id="edge1" class="edge">
<title>Node2&#45;&gt;Node1</title>
<path fill="none" stroke="#404040" d="M55,-138.28C55,-127.73 55,-115.29 55,-103.03"/>
<polygon fill="none" stroke="#404040" points="55,-102.91 51,-96.91 55,-90.91 59,-96.91 55,-102.91"/>
<text text-anchor="middle" x="82.5" y="-112" font-family="Helvetica,sans-Serif" font-size="10.00"> +InitValue</text>
</g>
</g>
</svg>
