<?xml version="1.0" encoding="UTF-8" standalone="no"?>
<!DOCTYPE svg PUBLIC "-//W3C//DTD SVG 1.1//EN"
 "http://www.w3.org/Graphics/SVG/1.1/DTD/svg11.dtd">
<!-- Generated by graphviz version 2.43.0 (0)
 -->
<!-- Title: EepromBase Pages: 1 -->
<svg width="175pt" height="371pt"
 viewBox="0.00 0.00 175.00 371.00" xmlns="http://www.w3.org/2000/svg" xmlns:xlink="http://www.w3.org/1999/xlink">
<g id="graph0" class="graph" transform="scale(1 1) rotate(0) translate(4 367)">
<title>EepromBase</title>
<polygon fill="white" stroke="transparent" points="-4,4 -4,-367 171,-367 171,4 -4,4"/>
<!-- Node1 -->
<g id="node1" class="node">
<title>Node1</title>
<g id="a_node1"><a xlink:title=" ">
<polygon fill="#bfbfbf" stroke="black" points="44.5,-0.5 44.5,-57.5 122.5,-57.5 122.5,-0.5 44.5,-0.5"/>
<text text-anchor="middle" x="83.5" y="-45.5" font-family="Helvetica,sans-Serif" font-size="10.00">EepromBase</text>
<polyline fill="none" stroke="black" points="44.5,-38.5 122.5,-38.5 "/>
<text text-anchor="middle" x="83.5" y="-26.5" font-family="Helvetica,sans-Serif" font-size="10.00"> </text>
<polyline fill="none" stroke="black" points="44.5,-19.5 122.5,-19.5 "/>
<text text-anchor="middle" x="83.5" y="-7.5" font-family="Helvetica,sans-Serif" font-size="10.00"> </text>
</a>
</g>
</g>
<!-- Node2 -->
<g id="node2" class="node">
<title>Node2</title>
<g id="a_node2"><a xlink:href="a00837.html" target="_top" xlink:title=" ">
<polygon fill="white" stroke="black" points="9,-95.5 9,-152.5 158,-152.5 158,-95.5 9,-95.5"/>
<text text-anchor="middle" x="83.5" y="-140.5" font-family="Helvetica,sans-Serif" font-size="10.00">EepromBaseStatic&lt; void &gt;</text>
<polyline fill="none" stroke="black" points="9,-133.5 158,-133.5 "/>
<text text-anchor="start" x="17" y="-121.5" font-family="Helvetica,sans-Serif" font-size="10.00">+ counter</text>
<polyline fill="none" stroke="black" points="9,-114.5 158,-114.5 "/>
<text text-anchor="middle" x="83.5" y="-102.5" font-family="Helvetica,sans-Serif" font-size="10.00"> </text>
</a>
</g>
</g>
<!-- Node2&#45;&gt;Node1 -->
<g id="edge1" class="edge">
<title>Node2&#45;&gt;Node1</title>
<path fill="none" stroke="midnightblue" d="M83.5,-85.24C83.5,-76.03 83.5,-66.35 83.5,-57.71"/>
<polygon fill="none" stroke="midnightblue" points="80,-85.35 83.5,-95.35 87,-85.35 80,-85.35"/>
</g>
<!-- Node3 -->
<g id="node3" class="node">
<title>Node3</title>
<g id="a_node3"><a xlink:href="a00837.html" target="_top" xlink:title=" ">
<polygon fill="white" stroke="black" points="0,-200.5 0,-257.5 167,-257.5 167,-200.5 0,-200.5"/>
<text text-anchor="middle" x="83.5" y="-245.5" font-family="Helvetica,sans-Serif" font-size="10.00">EepromBaseStatic&lt; Dummy &gt;</text>
<polyline fill="none" stroke="black" points="0,-238.5 167,-238.5 "/>
<text text-anchor="middle" x="83.5" y="-226.5" font-family="Helvetica,sans-Serif" font-size="10.00"> </text>
<polyline fill="none" stroke="black" points="0,-219.5 167,-219.5 "/>
<text text-anchor="middle" x="83.5" y="-207.5" font-family="Helvetica,sans-Serif" font-size="10.00"> </text>
</a>
</g>
</g>
<!-- Node3&#45;&gt;Node2 -->
<g id="edge2" class="edge">
<title>Node3&#45;&gt;Node2</title>
<path fill="none" stroke="orange" d="M83.5,-190.29C83.5,-177.84 83.5,-164.23 83.5,-152.68"/>
<polygon fill="orange" stroke="orange" points="80,-190.4 83.5,-200.4 87,-190.4 80,-190.4"/>
<text text-anchor="middle" x="107" y="-174" font-family="Helvetica,sans-Serif" font-size="10.00"> &lt; void &gt;</text>
</g>
<!-- Node4 -->
<g id="node4" class="node">
<title>Node4</title>
<g id="a_node4"><a xlink:title=" ">
<polygon fill="white" stroke="#bfbfbf" points="40.5,-305.5 40.5,-362.5 126.5,-362.5 126.5,-305.5 40.5,-305.5"/>
<text text-anchor="middle" x="83.5" y="-350.5" font-family="Helvetica,sans-Serif" font-size="10.00">static uint16_t</text>
<polyline fill="none" stroke="#bfbfbf" points="40.5,-343.5 126.5,-343.5 "/>
<text text-anchor="middle" x="83.5" y="-331.5" font-family="Helvetica,sans-Serif" font-size="10.00"> </text>
<polyline fill="none" stroke="#bfbfbf" points="40.5,-324.5 126.5,-324.5 "/>
<text text-anchor="middle" x="83.5" y="-312.5" font-family="Helvetica,sans-Serif" font-size="10.00"> </text>
</a>
</g>
</g>
<!-- Node4&#45;&gt;Node3 -->
<g id="edge3" class="edge">
<title>Node4&#45;&gt;Node3</title>
<path fill="none" stroke="#404040" d="M83.5,-305.4C83.5,-294.55 83.5,-281.87 83.5,-270.05"/>
<polygon fill="none" stroke="#404040" points="83.5,-269.68 79.5,-263.68 83.5,-257.68 87.5,-263.68 83.5,-269.68"/>
<text text-anchor="middle" x="108" y="-279" font-family="Helvetica,sans-Serif" font-size="10.00"> +counter</text>
</g>
</g>
</svg>
